M48
; DRILL file {KiCad 8.0.3-8.0.3-0~ubuntu22.04.1} date 2024-07-12T00:54:15-0400
; FORMAT={-:-/ absolute / metric / decimal}
; #@! TF.CreationDate,2024-07-12T00:54:15-04:00
; #@! TF.GenerationSoftware,Kicad,Pcbnew,8.0.3-8.0.3-0~ubuntu22.04.1
; #@! TF.FileFunction,Plated,1,2,PTH
FMAT,2
METRIC
; #@! TA.AperFunction,Plated,PTH,ComponentDrill
T1C0.200
; #@! TA.AperFunction,Plated,PTH,ViaDrill
T2C0.300
; #@! TA.AperFunction,Plated,PTH,ViaDrill
T3C0.400
; #@! TA.AperFunction,Plated,PTH,ViaDrill
T4C0.500
; #@! TA.AperFunction,Plated,PTH,ComponentDrill
T5C0.500
; #@! TA.AperFunction,Plated,PTH,ComponentDrill
T6C0.600
; #@! TA.AperFunction,Plated,PTH,ComponentDrill
T7C0.900
; #@! TA.AperFunction,Plated,PTH,ComponentDrill
T8C0.950
; #@! TA.AperFunction,Plated,PTH,ComponentDrill
T9C1.000
; #@! TA.AperFunction,Plated,PTH,ComponentDrill
T10C1.020
; #@! TA.AperFunction,Plated,PTH,ComponentDrill
T11C1.100
; #@! TA.AperFunction,Plated,PTH,ComponentDrill
T12C1.600
; #@! TA.AperFunction,Plated,PTH,ComponentDrill
T13C2.300
%
G90
G05
T1
X52.1Y-138.104
X52.1Y-140.104
X52.1Y-142.104
X52.1Y-152.1
X52.1Y-154.1
X52.1Y-156.1
X52.1Y-158.1
X54.0Y-134.204
X54.0Y-162.0
X56.0Y-134.204
X56.0Y-162.0
X58.0Y-134.204
X58.0Y-162.0
X59.999Y-134.204
X59.999Y-162.0
X62.0Y-134.204
X62.0Y-162.0
X64.0Y-134.204
X64.0Y-162.0
X66.0Y-134.204
X66.0Y-162.0
X68.0Y-134.204
X68.0Y-162.0
X70.0Y-134.204
X70.0Y-162.0
X71.996Y-134.204
X71.996Y-162.0
X73.996Y-134.204
X73.996Y-162.0
X75.996Y-134.204
X75.996Y-162.0
X77.996Y-134.204
X77.996Y-162.0
X79.996Y-134.204
X79.996Y-162.0
X81.996Y-134.204
X81.996Y-162.0
X83.996Y-134.204
X83.996Y-162.0
X85.996Y-134.204
X85.996Y-162.0
X87.996Y-134.204
X87.996Y-162.0
X89.896Y-138.104
X89.896Y-140.104
X89.896Y-142.104
X89.896Y-148.102
X89.896Y-150.1
X89.896Y-152.1
X89.896Y-154.1
X89.896Y-156.1
X89.896Y-158.1
X127.5Y-174.6
T2
X51.0Y-134.0
X51.0Y-136.0
X51.0Y-144.0
X51.0Y-146.0
X51.0Y-148.0
X51.0Y-150.0
X51.0Y-160.0
X51.0Y-162.0
X51.0Y-164.0
X51.0Y-166.0
X51.0Y-168.0
X51.0Y-170.0
X51.0Y-172.0
X51.0Y-174.0
X51.0Y-176.0
X51.0Y-178.0
X51.0Y-180.0
X51.0Y-182.0
X51.0Y-184.0
X51.0Y-186.0
X52.0Y-134.0
X52.8Y-167.2
X53.0Y-186.0
X54.1Y-171.5
X55.0Y-186.0
X55.5Y-166.75
X55.75Y-173.5
X56.5Y-168.0
X56.75Y-173.25
X56.98Y-171.22
X57.0Y-186.0
X58.25Y-168.5
X59.0Y-186.0
X59.25Y-168.0
X59.75Y-180.5
X59.87Y-171.08
X60.25Y-175.072
X60.25Y-175.775
X60.75Y-180.5
X61.0Y-186.0
X61.5Y-178.25
X62.25Y-171.25
X63.0Y-169.0
X63.0Y-186.0
X63.75Y-179.5
X64.0Y-175.25
X64.5Y-171.0
X65.0Y-186.0
X65.3Y-171.1
X65.7Y-178.8
X65.75Y-181.0
X67.0Y-186.0
X67.5Y-173.5
X67.5Y-176.5
X68.2Y-167.8
X68.25Y-169.5
X68.789Y-176.5
X69.0Y-186.0
X69.5Y-136.0
X70.75Y-180.5
X70.837Y-176.5
X71.0Y-186.0
X72.0Y-171.0
X72.0Y-176.5
X73.0Y-186.0
X75.0Y-173.5
X75.0Y-186.0
X75.023Y-175.898
X75.75Y-180.5
X77.0Y-186.0
X78.0Y-173.5
X78.0Y-178.25
X78.05Y-139.97
X79.0Y-186.0
X80.0Y-136.0
X80.0Y-169.0
X81.0Y-186.0
X82.0Y-136.0
X83.0Y-186.0
X84.0Y-136.0
X85.0Y-186.0
X86.0Y-136.0
X87.0Y-186.0
X88.0Y-136.0
X90.0Y-133.5
X90.0Y-136.0
X90.86Y-182.1
X91.212Y-156.641
X92.0Y-133.5
X92.0Y-138.0
X92.0Y-142.0
X92.0Y-177.5
X92.5Y-151.0
X92.5Y-175.0
X93.0Y-138.0
X93.0Y-142.0
X93.0Y-186.0
X93.5Y-156.25
X93.5Y-158.75
X93.5Y-160.0
X93.51Y-157.41
X94.0Y-142.0
X94.0Y-177.5
X95.0Y-142.0
X95.0Y-186.0
X96.0Y-142.0
X97.0Y-142.0
X97.0Y-186.0
X98.0Y-144.75
X98.93Y-138.31
X99.0Y-142.0
X99.0Y-144.5
X99.0Y-153.25
X99.0Y-186.0
X99.8Y-162.848
X99.8Y-163.552
X100.0Y-142.0
X101.0Y-133.5
X101.0Y-143.0
X101.5Y-146.0
X101.5Y-147.0
X101.5Y-148.0
X101.5Y-149.0
X101.5Y-150.0
X101.5Y-151.0
X101.5Y-153.5
X101.5Y-154.5
X101.5Y-155.5
X101.5Y-156.5
X101.5Y-157.5
X101.5Y-158.5
X101.5Y-159.5
X101.5Y-160.5
X101.5Y-161.5
X101.5Y-162.5
X101.5Y-163.5
X101.5Y-167.5
X101.5Y-168.5
X101.5Y-169.5
X101.5Y-170.5
X101.5Y-171.5
X101.5Y-172.5
X101.5Y-173.5
X101.5Y-174.5
X101.5Y-175.5
X101.5Y-176.5
X101.5Y-177.5
X101.5Y-178.5
X103.0Y-133.5
X104.8Y-139.8
X105.0Y-133.5
X105.375Y-145.125
X105.5Y-156.0
X105.5Y-157.0
X105.5Y-158.0
X105.5Y-159.0
X105.5Y-160.0
X105.5Y-161.0
X105.5Y-162.0
X105.5Y-163.0
X105.5Y-164.0
X105.5Y-167.5
X105.5Y-168.5
X105.5Y-169.5
X105.5Y-170.5
X105.5Y-171.5
X105.5Y-172.5
X105.5Y-173.5
X105.5Y-174.5
X105.5Y-175.5
X105.5Y-176.5
X105.5Y-177.5
X105.5Y-178.5
X105.69Y-147.58
X106.125Y-144.653
X106.28Y-150.89
X106.5Y-144.0
X107.0Y-133.5
X108.0Y-186.0
X108.25Y-142.25
X108.25Y-150.5
X109.0Y-133.5
X109.5Y-138.175
X109.5Y-150.5
X110.03Y-155.11
X111.0Y-133.5
X111.74Y-161.26
X111.93Y-143.0
X112.0Y-149.25
X112.0Y-186.0
X113.0Y-133.5
X113.0Y-147.5
X114.0Y-186.0
X115.0Y-133.5
X116.5Y-160.5
X117.0Y-133.5
X117.0Y-141.25
X117.0Y-146.0
X117.15Y-143.0
X117.5Y-148.125
X117.5Y-148.875
X118.0Y-186.0
X118.2Y-144.75
X119.0Y-133.5
X119.275Y-141.85
X119.39Y-138.92
X119.5Y-143.0
X119.975Y-146.125
X120.5Y-137.625
X121.0Y-133.5
X121.25Y-138.96
X121.4Y-146.55
X122.0Y-186.0
X122.45Y-146.6
X122.64Y-139.1
X123.0Y-133.5
X123.75Y-146.25
X124.0Y-142.75
X124.0Y-186.0
X125.0Y-133.5
X125.0Y-141.5
X125.42Y-175.62
X126.5Y-141.5
X126.61Y-144.86
X127.0Y-133.5
X127.0Y-133.5
X128.16Y-144.87
X128.325Y-140.975
X129.0Y-133.5
X129.0Y-186.0
X131.0Y-133.5
X131.0Y-186.0
X133.0Y-133.5
X133.0Y-186.0
X135.0Y-133.5
X135.0Y-135.0
X135.0Y-137.0
X135.0Y-139.0
X135.0Y-141.0
X135.0Y-143.0
X135.0Y-180.0
X135.0Y-182.0
X135.0Y-184.0
X135.0Y-186.0
T3
X114.5Y-155.81
T4
X84.75Y-158.0
X85.866Y-163.748
X88.25Y-177.05
X113.3Y-159.6
X121.3Y-170.5
X121.71Y-175.025
X122.0Y-169.3
X122.66Y-176.075
X133.875Y-163.1
T5
X94.0Y-151.1
X94.0Y-152.1
X111.6Y-168.8
X111.6Y-174.8
T7
X56.68Y-169.59
X57.95Y-167.05
X59.22Y-169.59
X60.49Y-167.05
X61.76Y-169.59
X63.03Y-167.05
X64.3Y-169.59
X65.57Y-167.05
X70.65Y-169.59
X71.92Y-167.05
X73.19Y-169.59
X74.46Y-167.05
X75.73Y-169.59
X77.0Y-167.05
X78.27Y-169.59
X79.54Y-167.05
T8
X122.0Y-153.5
X122.0Y-156.0
X122.0Y-158.0
X122.0Y-160.5
T9
X88.25Y-165.46
X88.25Y-168.0
X90.79Y-165.46
X90.79Y-168.0
X94.75Y-155.475
X94.75Y-158.015
X94.75Y-160.555
X97.29Y-155.475
X97.29Y-158.015
X97.29Y-160.555
X128.46Y-166.0
X131.0Y-166.0
T10
X54.68Y-180.0
X57.22Y-180.0
X65.06Y-180.0
X67.6Y-180.0
X68.62Y-178.23
X71.16Y-178.23
X79.0Y-180.0
X81.54Y-180.0
T11
X109.5Y-180.75
X109.5Y-185.25
X116.0Y-180.75
X116.0Y-185.25
X119.75Y-180.75
X119.75Y-185.25
X126.25Y-180.75
X126.25Y-185.25
T12
X52.675Y-172.89
X68.11Y-165.78
X83.545Y-172.89
T13
X124.71Y-150.43
X124.71Y-163.57
T6
G00X116.68Y-135.713
M15
G01X116.68Y-135.112
M16
G05
G00X116.68Y-140.142
M15
G01X116.68Y-139.042
M16
G05
G00X125.32Y-135.713
M15
G01X125.32Y-135.112
M16
G05
G00X125.32Y-140.142
M15
G01X125.32Y-139.042
M16
G05
M30
